# xmcd
#
# Track frame offsets:
#	183
#	7638
#	17483
#	26548
#	33830
#	40820
#	49658
#	55373
#	64073
#	69908
#	77368
#
# Disc length: 1150 seconds
#
# Revision: 2
# Processed by: cddbd v1.5PL3 Copyright (c) Steve Scherf et al.
# Submitted via: audiograbber 1.83.01
#
DISCID=72047c0b
DTITLE=Buck Owens - Rhythm and Booze
DYEAR=1992
DGENRE=Country
TTITLE0=Down On The Corner Of Love
TTITLE1=House Down The Block
TTITLE2=It Don't Show On Me
TTITLE3=Please Don't Take Her From Me
TTITLE4=You're For Me
TTITLE5=Why Don't Mommy Stay With Daddy And Me
TTITLE6=Three Dimension Love
TTITLE7=After The Dance
TTITLE8=Blue Love
TTITLE9=That Ain't Right Baby
TTITLE10=Rhythm And Booze
EXTD=
EXTT0=
EXTT1=
EXTT2=
EXTT3=
EXTT4=
EXTT5=
EXTT6=
EXTT7=
EXTT8=
EXTT9=
EXTT10=
PLAYORDER=
